<?xml version="1.0" encoding="utf-8"?>
<svg viewBox="0 0 159 52" fill="none" xmlns="http://www.w3.org/2000/svg">
  <defs>
    <linearGradient id="paint0_linear_2973_971" x1="25.6472" y1="5.00882" x2="25.6472" y2="46.3241" gradientUnits="userSpaceOnUse">
      <stop stop-color="#A4C1FF"/>
      <stop offset="1" stop-color="#0E78F9"/>
    </linearGradient>
    <filter id="filter0_dddddd_2973_971" x="8.11429" y="16.479" width="27.248" height="22.7901" filterUnits="userSpaceOnUse" color-interpolation-filters="sRGB">
      <feFlood flood-opacity="0" result="BackgroundImageFix"/>
      <feColorMatrix in="SourceAlpha" type="matrix" values="0 0 0 0 0 0 0 0 0 0 0 0 0 0 0 0 0 0 127 0" result="hardAlpha"/>
      <feOffset dy="0.123703"/>
      <feGaussianBlur stdDeviation="0.0455686"/>
      <feColorMatrix type="matrix" values="0 0 0 0 0.0509804 0 0 0 0 0.121569 0 0 0 0 0.396078 0 0 0 0.189957 0"/>
      <feBlend mode="multiply" in2="BackgroundImageFix" result="effect1_dropShadow_2973_971"/>
      <feColorMatrix in="SourceAlpha" type="matrix" values="0 0 0 0 0 0 0 0 0 0 0 0 0 0 0 0 0 0 127 0" result="hardAlpha"/>
      <feOffset dy="0.242703"/>
      <feGaussianBlur stdDeviation="0.101348"/>
      <feColorMatrix type="matrix" values="0 0 0 0 0.0509804 0 0 0 0 0.121569 0 0 0 0 0.396078 0 0 0 0.368551 0"/>
      <feBlend mode="multiply" in2="effect1_dropShadow_2973_971" result="effect2_dropShadow_2973_971"/>
      <feColorMatrix in="SourceAlpha" type="matrix" values="0 0 0 0 0 0 0 0 0 0 0 0 0 0 0 0 0 0 127 0" result="hardAlpha"/>
      <feOffset dy="0.373252"/>
      <feGaussianBlur stdDeviation="0.173572"/>
      <feColorMatrix type="matrix" values="0 0 0 0 0.0509804 0 0 0 0 0.121569 0 0 0 0 0.396078 0 0 0 0.3 0"/>
      <feBlend mode="multiply" in2="effect2_dropShadow_2973_971" result="effect3_dropShadow_2973_971"/>
      <feColorMatrix in="SourceAlpha" type="matrix" values="0 0 0 0 0 0 0 0 0 0 0 0 0 0 0 0 0 0 127 0" result="hardAlpha"/>
      <feOffset dy="0.547679"/>
      <feGaussianBlur stdDeviation="0.551221"/>
      <feColorMatrix type="matrix" values="0 0 0 0 0.0509804 0 0 0 0 0.121569 0 0 0 0 0.396078 0 0 0 0.3 0"/>
      <feBlend mode="multiply" in2="effect3_dropShadow_2973_971" result="effect4_dropShadow_2973_971"/>
      <feColorMatrix in="SourceAlpha" type="matrix" values="0 0 0 0 0 0 0 0 0 0 0 0 0 0 0 0 0 0 127 0" result="hardAlpha"/>
      <feOffset dy="0.852209"/>
      <feGaussianBlur stdDeviation="1.0248"/>
      <feColorMatrix type="matrix" values="0 0 0 0 0.0509804 0 0 0 0 0.121569 0 0 0 0 0.396078 0 0 0 0.29 0"/>
      <feBlend mode="overlay" in2="effect4_dropShadow_2973_971" result="effect5_dropShadow_2973_971"/>
      <feColorMatrix in="SourceAlpha" type="matrix" values="0 0 0 0 0 0 0 0 0 0 0 0 0 0 0 0 0 0 127 0" result="hardAlpha"/>
      <feOffset dy="2.25397"/>
      <feGaussianBlur stdDeviation="1.80318"/>
      <feColorMatrix type="matrix" values="0 0 0 0 0.0509804 0 0 0 0 0.121569 0 0 0 0 0.396078 0 0 0 0.45 0"/>
      <feBlend mode="multiply" in2="effect5_dropShadow_2973_971" result="effect6_dropShadow_2973_971"/>
      <feBlend mode="normal" in="SourceGraphic" in2="effect6_dropShadow_2973_971" result="shape"/>
    </filter>
    <linearGradient id="paint1_linear_2973_971" x1="21.7383" y1="17.8314" x2="21.7383" y2="33.4088" gradientUnits="userSpaceOnUse">
      <stop stop-color="white"/>
      <stop offset="1" stop-color="#C5D4F7"/>
    </linearGradient>
    <linearGradient id="paint2_linear_2973_971" x1="21.7383" y1="17.8314" x2="21.7383" y2="33.4088" gradientUnits="userSpaceOnUse">
      <stop stop-color="white"/>
      <stop offset="1" stop-color="#637ACA"/>
    </linearGradient>
    <filter id="filter1_dddddd_2973_971" x="29.3517" y="16.6293" width="13.8744" height="22.5278" filterUnits="userSpaceOnUse" color-interpolation-filters="sRGB">
      <feFlood flood-opacity="0" result="BackgroundImageFix"/>
      <feColorMatrix in="SourceAlpha" type="matrix" values="0 0 0 0 0 0 0 0 0 0 0 0 0 0 0 0 0 0 127 0" result="hardAlpha"/>
      <feOffset dy="0.123703"/>
      <feGaussianBlur stdDeviation="0.0455686"/>
      <feColorMatrix type="matrix" values="0 0 0 0 0.0509804 0 0 0 0 0.121569 0 0 0 0 0.396078 0 0 0 0.189957 0"/>
      <feBlend mode="multiply" in2="BackgroundImageFix" result="effect1_dropShadow_2973_971"/>
      <feColorMatrix in="SourceAlpha" type="matrix" values="0 0 0 0 0 0 0 0 0 0 0 0 0 0 0 0 0 0 127 0" result="hardAlpha"/>
      <feOffset dy="0.242703"/>
      <feGaussianBlur stdDeviation="0.101348"/>
      <feColorMatrix type="matrix" values="0 0 0 0 0.0509804 0 0 0 0 0.121569 0 0 0 0 0.396078 0 0 0 0.368551 0"/>
      <feBlend mode="multiply" in2="effect1_dropShadow_2973_971" result="effect2_dropShadow_2973_971"/>
      <feColorMatrix in="SourceAlpha" type="matrix" values="0 0 0 0 0 0 0 0 0 0 0 0 0 0 0 0 0 0 127 0" result="hardAlpha"/>
      <feOffset dy="0.373252"/>
      <feGaussianBlur stdDeviation="0.173572"/>
      <feColorMatrix type="matrix" values="0 0 0 0 0.0509804 0 0 0 0 0.121569 0 0 0 0 0.396078 0 0 0 0.3 0"/>
      <feBlend mode="multiply" in2="effect2_dropShadow_2973_971" result="effect3_dropShadow_2973_971"/>
      <feColorMatrix in="SourceAlpha" type="matrix" values="0 0 0 0 0 0 0 0 0 0 0 0 0 0 0 0 0 0 127 0" result="hardAlpha"/>
      <feOffset dy="0.547679"/>
      <feGaussianBlur stdDeviation="0.551221"/>
      <feColorMatrix type="matrix" values="0 0 0 0 0.0509804 0 0 0 0 0.121569 0 0 0 0 0.396078 0 0 0 0.3 0"/>
      <feBlend mode="multiply" in2="effect3_dropShadow_2973_971" result="effect4_dropShadow_2973_971"/>
      <feColorMatrix in="SourceAlpha" type="matrix" values="0 0 0 0 0 0 0 0 0 0 0 0 0 0 0 0 0 0 127 0" result="hardAlpha"/>
      <feOffset dy="0.852209"/>
      <feGaussianBlur stdDeviation="1.0248"/>
      <feColorMatrix type="matrix" values="0 0 0 0 0.0509804 0 0 0 0 0.121569 0 0 0 0 0.396078 0 0 0 0.29 0"/>
      <feBlend mode="overlay" in2="effect4_dropShadow_2973_971" result="effect5_dropShadow_2973_971"/>
      <feColorMatrix in="SourceAlpha" type="matrix" values="0 0 0 0 0 0 0 0 0 0 0 0 0 0 0 0 0 0 127 0" result="hardAlpha"/>
      <feOffset dy="2.25397"/>
      <feGaussianBlur stdDeviation="1.80318"/>
      <feColorMatrix type="matrix" values="0 0 0 0 0.0509804 0 0 0 0 0.121569 0 0 0 0 0.396078 0 0 0 0.45 0"/>
      <feBlend mode="multiply" in2="effect5_dropShadow_2973_971" result="effect6_dropShadow_2973_971"/>
      <feBlend mode="normal" in="SourceGraphic" in2="effect6_dropShadow_2973_971" result="shape"/>
    </filter>
    <linearGradient id="paint3_linear_2973_971" x1="36.2889" y1="17.9817" x2="36.2889" y2="33.2967" gradientUnits="userSpaceOnUse">
      <stop stop-color="white"/>
      <stop offset="1" stop-color="#C5D4F7"/>
    </linearGradient>
    <linearGradient id="paint4_linear_2973_971" x1="36.2889" y1="17.9817" x2="36.2889" y2="33.2967" gradientUnits="userSpaceOnUse">
      <stop stop-color="white"/>
      <stop offset="1" stop-color="#637ACA"/>
    </linearGradient>
  </defs>
  <path d="M19.6723 5.01949C20.4376 5.02481 21.2025 5.03014 21.9327 5.03014H29.3618C30.0919 5.03014 30.8568 5.02481 31.6221 5.01949C33.6825 5.00515 35.7459 4.99079 37.1425 5.08022C42.2264 5.4058 45.7326 8.48622 46.1834 13.7204C46.2903 15.6013 46.2877 17.8671 46.2847 20.5392V20.54C46.2841 20.9986 46.2836 21.4692 46.2836 21.9519V29.381C46.2836 29.8637 46.2841 30.3343 46.2847 30.7929C46.2877 33.4654 46.2903 35.7315 46.1834 37.6125C45.7326 42.8467 42.2264 45.9272 37.1425 46.2527C35.7459 46.3422 33.6825 46.3278 31.6221 46.3135C30.8568 46.3081 30.0919 46.3028 29.3618 46.3028H21.9327C21.2025 46.3028 20.4376 46.3081 19.6723 46.3135C17.612 46.3278 15.5486 46.3422 14.152 46.2527C9.06805 45.9272 5.56188 42.8467 5.11108 37.6125C5.0042 35.7316 5.00679 33.4658 5.00983 30.7937V30.7929C5.01036 30.3343 5.01089 29.8637 5.01089 29.381V21.9519C5.01089 21.4692 5.01036 20.9986 5.00983 20.54V20.5392C5.00679 17.8671 5.0042 15.6013 5.11108 13.7204C5.56188 8.48622 9.06805 5.4058 14.152 5.08022C15.5486 4.99079 17.612 5.00515 19.6723 5.01949Z" fill="url(#paint0_linear_2973_971)"/>
  <g filter="url(#filter0_dddddd_2973_971)">
    <path d="M11.7206 19.7347C11.7206 18.6836 12.5728 17.8314 13.624 17.8314H26.9475C29.6031 17.8314 31.7559 19.9842 31.7559 22.6399V31.5055C31.7559 32.5567 30.9038 33.4088 29.8526 33.4088H16.5291C13.8735 33.4088 11.7206 31.256 11.7206 28.6004V19.7347Z" fill="url(#paint1_linear_2973_971)"/>
    <path d="M13.624 18.0568H26.9475C29.4786 18.0568 31.5305 20.1087 31.5305 22.6399V31.5055C31.5305 32.4322 30.7793 33.1834 29.8526 33.1834H16.5291C13.9979 33.1834 11.946 31.1315 11.946 28.6004V19.7347C11.946 18.808 12.6973 18.0568 13.624 18.0568Z" stroke="url(#paint2_linear_2973_971)" stroke-width="0.450794"/>
  </g>
  <g filter="url(#filter1_dddddd_2973_971)">
    <path d="M32.958 23.3465C32.958 22.6986 33.2368 22.082 33.7232 21.6541L37.5404 18.2961C38.3494 17.5845 39.6197 18.1589 39.6197 19.2363V32.0421C39.6197 33.1094 38.3701 33.6874 37.5568 32.9964L34.0527 30.0193C33.3583 29.4293 32.958 28.564 32.958 27.6527V23.3465Z" fill="url(#paint3_linear_2973_971)"/>
    <path d="M33.8721 21.8234L37.6893 18.4654C38.3527 17.8818 39.3943 18.3528 39.3943 19.2363V32.0421C39.3943 32.9173 38.3696 33.3913 37.7027 32.8246L34.1987 29.8475C33.5546 29.3003 33.1834 28.4978 33.1834 27.6527V23.3465C33.1834 22.7634 33.4343 22.2085 33.8721 21.8234Z" stroke="url(#paint4_linear_2973_971)" stroke-width="0.450794"/>
  </g>
  <text style="fill: rgb(255, 255, 255); font-family: 'Berlin Sans FB'; font-size: 28px; white-space: pre;" x="53.194" y="35.153">weMeet</text>
</svg>